<svg width="42" height="41" viewBox="0 0 42 41" fill="none" xmlns="http://www.w3.org/2000/svg">
<path fill-rule="evenodd" clip-rule="evenodd" d="M6.5625 14.0938H5.25C4.5465 14.0617 3.97031 13.5044 3.9375 12.8125V7.6875C3.97031 6.99947 4.52944 6.43828 5.25 6.40625H36.75C36.7907 6.40753 36.8314 6.41009 36.8707 6.41138C37.527 6.50106 38.031 7.03022 38.0625 7.6875V12.8125C38.0297 13.4993 37.4588 14.0617 36.75 14.0938H9.1875V32.0312H32.8125V17.9375C32.8637 16.8074 33.4425 16.7101 34.0108 16.6614C34.6553 16.6063 35.3036 17.0842 35.4178 17.7146C35.4349 17.8132 35.4336 17.8388 35.4375 17.9375V33.3125C35.4073 34.0005 34.8311 34.5643 34.125 34.5938H7.875C7.17019 34.5643 6.59269 34.0018 6.5625 33.3125V14.0938ZM26.25 19.2188H15.75C14.6186 19.188 13.8679 17.4007 15.1804 16.7831C15.3497 16.7037 15.4481 16.6639 15.75 16.6562H26.25C26.2749 16.6575 26.2986 16.6575 26.3235 16.6588C26.6241 16.6832 26.7199 16.7267 26.8852 16.8164C27.8552 17.3392 27.6124 19.1816 26.25 19.2188ZM6.5625 8.96875V11.5312H35.4375V8.96875H6.5625Z" fill="white"/>
</svg>
