<svg width="26" height="26" viewBox="0 0 26 26" fill="none" xmlns="http://www.w3.org/2000/svg">
<g clip-path="url(#clip0_0_53)">
<path d="M22.7906 0.5H13C11.2274 0.5 9.79065 1.87901 9.79065 3.5859V17.707C9.79065 18.3061 10.5052 18.6564 11.0094 18.2929L14.0698 16.0859H22.7906C24.5632 16.0859 26 14.7069 26 13V3.5859C26 1.88149 24.5658 0.5 22.7906 0.5V0.5ZM17.1335 12.1634H13.8159C13.3951 12.1634 13.0541 11.8356 13.0541 11.431C13.0541 11.0265 13.3951 10.6986 13.8159 10.6986H17.1335C17.5542 10.6986 17.8952 11.0265 17.8952 11.431C17.8952 11.8356 17.5542 12.1634 17.1335 12.1634ZM21.9748 9.02547H13.8159C13.3951 9.02547 13.0541 8.6974 13.0541 8.29305C13.0541 7.8885 13.3951 7.56062 13.8159 7.56062H21.9748C22.3953 7.56062 22.7365 7.8885 22.7365 8.29305C22.7365 8.6974 22.3955 9.02547 21.9748 9.02547ZM21.9748 5.88731H13.8159C13.3951 5.88731 13.0541 5.55943 13.0541 5.15488C13.0541 4.75053 13.3951 4.42246 13.8159 4.42246H21.9748C22.3953 4.42246 22.7365 4.75053 22.7365 5.15488C22.7365 5.55943 22.3955 5.88731 21.9748 5.88731Z" fill="#2F73F2"/>
<path d="M8.44177 15.7294C8.44177 17.6415 6.82967 19.1916 4.84106 19.1916C2.85246 19.1916 1.24036 17.6415 1.24036 15.7294C1.24036 13.8171 2.85246 12.267 4.84106 12.267C6.82967 12.267 8.44177 13.8171 8.44177 15.7294Z" fill="white"/>
<path d="M4.84108 19.1916C2.16753 19.1916 0 21.2758 0 23.8465V24.7676C0 25.1721 0.340988 25.5 0.761719 25.5H8.92064C9.34117 25.5 9.68236 25.1721 9.68236 24.7676V23.8465C9.68236 21.2758 7.51483 19.1916 4.84108 19.1916Z" fill="#2F73F2"/>
</g>
<defs>
<clipPath id="clip0_0_53">
<rect width="26" height="25" fill="white" transform="translate(0 0.5)"/>
</clipPath>
</defs>
</svg>
