<svg width="42" height="41" viewBox="0 0 42 41" fill="none" xmlns="http://www.w3.org/2000/svg">
<g clip-path="url(#clip0_51_39)">
<path fill-rule="evenodd" clip-rule="evenodd" d="M27.8909 15.2791C27.1554 14.1116 26.7967 12.6883 27.0437 11.2492C27.4879 8.66261 29.7922 6.57007 32.4069 6.51837C32.4787 6.51837 32.4787 6.51837 32.549 6.51837C35.6674 6.58012 38.3911 9.75699 37.9467 13.0674C37.5811 15.7775 35.1223 18.0123 32.4787 18.0123C31.5763 18.0123 30.7015 17.7437 29.9246 17.2799C29.5121 17.7178 29.1009 18.1544 28.669 18.5666C29.0913 19.2531 29.4031 20.0187 29.5687 20.833C29.9164 22.5464 29.5756 24.3631 28.7381 25.8827L30.7567 27.6736C31.6342 27.0402 32.6828 26.6554 33.788 26.6323C33.8585 26.6323 33.8585 26.6323 33.9302 26.6323C37.043 26.6941 39.775 29.8523 39.3265 33.1814C38.9623 35.8915 36.5035 38.1263 33.8585 38.1263C30.6766 38.1263 27.8357 34.7857 28.4235 31.3646C28.5159 30.8261 28.6898 30.309 28.9285 29.8279L26.9347 28.0599C26.4765 28.4319 25.9702 28.7421 25.4251 28.9748C23.7418 29.69 21.8184 29.5823 20.1447 28.8355L17.5728 31.962C18.3896 33.1197 18.8215 34.5702 18.6214 36.0552C18.2571 38.7654 15.7984 41.0001 13.1533 41.0001C9.9729 41.0001 7.13057 37.6595 7.71836 34.237C8.16403 31.6504 10.4669 29.5579 13.083 29.5061C13.1533 29.5061 13.1533 29.5061 13.2251 29.5061C14.0129 29.522 14.7759 29.736 15.47 30.1007L17.8405 27.2183C17.0954 26.4384 16.5173 25.4777 16.1999 24.3732C15.6852 22.5708 15.9722 20.6262 16.8304 18.9889C15.9806 18.1631 15.1444 17.3215 14.2999 16.4914C13.5093 15.69 13.9495 14.0081 15.2686 14.0096C15.5984 14.0196 15.9156 14.1489 16.164 14.373C16.9837 15.1542 17.7866 15.9556 18.5911 16.7527C19.6949 15.8005 21.0816 15.1873 22.6394 15.1413C22.7125 15.1385 22.787 15.1385 22.8602 15.1385C24.2344 15.1528 25.5755 15.6354 26.7015 16.4497C27.0961 16.0576 27.4935 15.6684 27.8909 15.2791ZM13.1175 32.38C11.2892 32.416 9.81837 34.6693 10.6655 36.4976C11.637 38.5958 15.4686 38.5083 15.8826 35.6919C16.1241 34.0532 14.8312 32.3685 13.1175 32.38ZM33.8226 29.5061C31.993 29.542 30.5235 31.7955 31.3693 33.6237C32.3421 35.722 36.1737 35.6359 36.5877 32.818C36.8278 31.1793 35.5432 29.4947 33.8226 29.5061ZM22.7898 18.0123C20.905 18.031 19.1416 19.5145 18.7594 21.4534C18.2738 23.9179 20.2965 26.6166 22.7898 26.6323C24.5835 26.6438 26.3041 25.3197 26.7994 23.5015C27.4797 21.014 25.6169 18.0941 22.9236 18.0138C22.8795 18.0123 22.8339 18.0123 22.7898 18.0123ZM9.08434 3.64453C12.1985 3.70629 14.9292 6.86449 14.4807 10.1936C14.1165 12.9037 11.6576 15.1385 9.01259 15.1385C5.83218 15.1385 2.98982 11.7979 3.57761 8.37538C4.0219 5.78878 6.32614 3.69624 8.94223 3.64453C9.01258 3.64453 9.01259 3.64453 9.08434 3.64453ZM32.4428 9.39218C30.6132 9.42808 29.1423 11.6801 29.9895 13.5083C30.9623 15.6081 34.7925 15.5205 35.2065 12.7041C35.448 11.0668 34.162 9.3807 32.4428 9.39218ZM8.97671 6.51837C7.14712 6.55427 5.67764 8.80767 6.52345 10.6359C7.49621 12.7342 11.3278 12.6467 11.7418 9.83025C11.9833 8.19154 10.6904 6.50688 8.97671 6.51837Z" fill="white"/>
</g>
<defs>
<clipPath id="clip0_51_39">
<rect width="42" height="41" fill="white"/>
</clipPath>
</defs>
</svg>
