<svg width="55" height="55" viewBox="0 0 55 55" fill="none" xmlns="http://www.w3.org/2000/svg">
<path d="M22.5623 33.798L25.4358 41.1929H29.5065L32.3801 33.798C33.7207 30.3479 34.4895 25.5366 34.4895 20.5969C34.4895 14.859 33.6305 9.48963 32.0712 5.47684C30.7389 2.04731 29.0189 0 27.4714 0C25.9234 0 24.2038 2.04731 22.8711 5.47684C21.3118 9.48963 20.4529 14.859 20.4529 20.5965C20.4529 25.5366 21.2216 30.3479 22.5623 33.798Z" fill="#2F73F2"/>
<path d="M33.3789 0.864746C33.997 1.84791 34.566 2.9985 35.0754 4.30938C36.7757 8.68556 37.7122 14.4696 37.7122 20.5964C37.7122 25.9985 36.8852 31.1011 35.3842 34.9653L32.9639 41.1928H34.375C34.8022 41.1928 35.2122 41.0229 35.5143 40.7208L42.7149 33.5206C46.1667 30.068 48.0676 25.4786 48.0676 20.5964C48.0676 11.2918 41.8656 3.41014 33.3789 0.864746Z" fill="#2F73F2"/>
<path d="M21.9787 41.1928L19.5583 34.9653C18.0574 31.1011 17.2303 25.9985 17.2303 20.5968C17.2303 14.4696 18.1669 8.68556 19.8672 4.30938C20.3766 2.9985 20.946 1.84791 21.5641 0.864746C13.0774 3.41014 6.875 11.2922 6.875 20.5968C6.875 25.4782 8.77586 30.068 12.2276 33.5206L19.4283 40.7208C19.7304 41.0229 20.1403 41.1928 20.5675 41.1928H21.9787Z" fill="#2F73F2"/>
<path d="M31.69 48.0964H23.2532V44.4151H20.4354C20.2991 44.4151 20.164 44.4126 20.0305 44.4076V53.3886C20.0305 54.2787 20.7523 55 21.6418 55H33.3009C34.1905 55 34.9122 54.2787 34.9122 53.3886L34.9126 44.4156H31.69V48.0964Z" fill="white"/>
</svg>
