<svg width="28" height="28" viewBox="0 0 28 28" fill="none" xmlns="http://www.w3.org/2000/svg">
<g clip-path="url(#clip0_0_43)">
<path d="M14 11.3001C16.6277 11.3001 18.7578 9.16999 18.7578 6.54232C18.7578 3.91465 16.6277 1.78451 14 1.78451C11.3723 1.78451 9.24219 3.91465 9.24219 6.54232C9.24219 9.16999 11.3723 11.3001 14 11.3001Z" fill="white"/>
<path d="M23.625 11.3001C25.2862 11.3001 26.6328 9.95344 26.6328 8.29227C26.6328 6.6311 25.2862 5.28445 23.625 5.28445C21.9638 5.28445 20.6172 6.6311 20.6172 8.29227C20.6172 9.95344 21.9638 11.3001 23.625 11.3001Z" fill="white"/>
<path d="M4.375 11.3001C6.03617 11.3001 7.38281 9.95344 7.38281 8.29227C7.38281 6.6311 6.03617 5.28445 4.375 5.28445C2.71383 5.28445 1.36719 6.6311 1.36719 8.29227C1.36719 9.95344 2.71383 11.3001 4.375 11.3001Z" fill="white"/>
<path d="M7.33852 14.0012C6.15453 13.0311 5.08227 13.1595 3.71328 13.1595C1.66578 13.1595 0 14.8154 0 16.8504V22.8228C0 23.7065 0.721328 24.4251 1.60836 24.4251C5.43791 24.4251 4.97656 24.4944 4.97656 24.26C4.97656 20.0279 4.4753 16.9244 7.33852 14.0012Z" fill="#2F73F2"/>
<path d="M15.3021 13.1813C12.911 12.9819 10.8326 13.1836 9.03988 14.6634C6.03989 17.0663 6.61723 20.3018 6.61723 24.2599C6.61723 25.3071 7.46926 26.1751 8.53238 26.1751C20.0759 26.1751 20.5354 26.5474 21.2199 25.0316C21.4444 24.5189 21.3828 24.6818 21.3828 19.7777C21.3828 15.8826 18.0101 13.1813 15.3021 13.1813Z" fill="#2F73F2"/>
<path d="M24.2867 13.1595C22.9102 13.1595 21.8439 13.0324 20.6615 14.0011C23.5033 16.9026 23.0235 19.7944 23.0235 24.2599C23.0235 24.4958 22.6405 24.4251 26.3342 24.4251C27.253 24.4251 28 23.6808 28 22.7659V16.8503C28 14.8154 26.3342 13.1595 24.2867 13.1595Z" fill="#2F73F2"/>
</g>
<defs>
<clipPath id="clip0_0_43">
<rect width="28" height="28" fill="white"/>
</clipPath>
</defs>
</svg>
