<svg width="26" height="27" viewBox="0 0 26 27" fill="none" xmlns="http://www.w3.org/2000/svg">
<g clip-path="url(#clip0_0_57)">
<path d="M20.2802 1.47819H12.2973C11.7921 1.47819 11.3068 1.67934 10.9493 2.03683L0.558394 12.4259C-0.186131 13.1704 -0.186131 14.3773 0.558394 15.1227L8.54131 23.1057C9.28583 23.8502 10.4927 23.8502 11.2372 23.1057L21.6282 12.7166C21.9857 12.3582 22.1868 11.873 22.1868 11.3667V3.38479C22.1868 2.33139 21.3336 1.47819 20.2802 1.47819ZM16.9437 8.15128C16.1543 8.15128 15.5137 7.51066 15.5137 6.72133C15.5137 5.932 16.1543 5.29138 16.9437 5.29138C17.733 5.29138 18.3736 5.932 18.3736 6.72133C18.3736 7.51066 17.733 8.15128 16.9437 8.15128Z" fill="#2F73F2"/>
<path d="M24.0935 3.38479L24.0925 12.259C24.0925 12.6985 23.9181 13.1208 23.6063 13.4316L13.0476 23.9903L13.2097 24.1524C13.9542 24.8969 15.1611 24.8969 15.9056 24.1524L25.4405 14.6194C25.7989 14.2619 26.0001 13.7767 26.0001 13.2714V5.29138C26.0001 4.23799 25.1469 3.38479 24.0935 3.38479Z" fill="white"/>
</g>
<defs>
<clipPath id="clip0_0_57">
<rect width="26" height="26" fill="white" transform="translate(0 0.0944824)"/>
</clipPath>
</defs>
</svg>
