<svg width="50" height="50" viewBox="0 0 50 50" fill="none" xmlns="http://www.w3.org/2000/svg">
<g clip-path="url(#clip0_2_489)">
<path d="M25 20.1787C29.6923 20.1787 33.4961 16.3749 33.4961 11.6826C33.4961 6.99035 29.6923 3.18652 25 3.18652C20.3077 3.18652 16.5039 6.99035 16.5039 11.6826C16.5039 16.3749 20.3077 20.1787 25 20.1787Z" fill="white"/>
<path d="M42.1875 20.1786C45.1539 20.1786 47.5586 17.7739 47.5586 14.8075C47.5586 11.8411 45.1539 9.4364 42.1875 9.4364C39.2211 9.4364 36.8164 11.8411 36.8164 14.8075C36.8164 17.7739 39.2211 20.1786 42.1875 20.1786Z" fill="white"/>
<path d="M7.8125 20.1786C10.7789 20.1786 13.1836 17.7739 13.1836 14.8075C13.1836 11.8411 10.7789 9.4364 7.8125 9.4364C4.84613 9.4364 2.44141 11.8411 2.44141 14.8075C2.44141 17.7739 4.84613 20.1786 7.8125 20.1786Z" fill="white"/>
<path d="M13.1045 25.002C10.9902 23.2698 9.07549 23.4991 6.63086 23.4991C2.97461 23.4991 0 26.4561 0 30.0899V40.7549C0 42.333 1.28809 43.6162 2.87207 43.6162C9.71055 43.6162 8.88672 43.74 8.88672 43.3213C8.88672 35.7641 7.9916 30.222 13.1045 25.002Z" fill="#2F73F2"/>
<path d="M27.3252 23.538C23.0553 23.1818 19.3439 23.5421 16.1426 26.1844C10.7855 30.4755 11.8164 36.2531 11.8164 43.3212C11.8164 45.1912 13.3379 46.7411 15.2364 46.7411C35.8498 46.7411 36.6703 47.406 37.8926 44.6991C38.2935 43.7837 38.1836 44.0746 38.1836 35.3173C38.1836 28.3616 32.1609 23.538 27.3252 23.538Z" fill="#2F73F2"/>
<path d="M43.3691 23.4989C40.9111 23.4989 39.0069 23.272 36.8955 25.0019C41.9702 30.1831 41.1133 35.3471 41.1133 43.3212C41.1133 43.7425 40.4294 43.6161 47.0254 43.6161C48.666 43.6161 50 42.287 50 40.6532V30.0898C50 26.456 47.0254 23.4989 43.3691 23.4989Z" fill="#2F73F2"/>
</g>
<defs>
<clipPath id="clip0_2_489">
<rect width="50" height="50" fill="white"/>
</clipPath>
</defs>
</svg>
