<svg width="19" height="19" viewBox="0 0 19 19" fill="none" xmlns="http://www.w3.org/2000/svg">
<path d="M17.9381 7.53484L17.5106 8.59234C17.3756 8.95234 17.3756 9.33484 17.5106 9.69484L17.9381 10.7523C18.1856 11.3823 17.9831 12.1023 17.4206 12.5073L16.4756 13.1598C16.1606 13.3848 15.9581 13.7223 15.8681 14.0823L15.6656 15.2073C15.5306 15.8823 14.9681 16.3773 14.2931 16.3998L13.1456 16.4448C12.7631 16.4673 12.4031 16.6248 12.1331 16.8948L11.3456 17.7273C10.8731 18.2223 10.1306 18.3348 9.54562 17.9973L8.55562 17.4123C8.21812 17.2098 7.83563 17.1648 7.45313 17.2548L6.32813 17.5248C5.67563 17.6823 4.97812 17.3673 4.66313 16.7598L4.14563 15.7248C3.96563 15.3873 3.67313 15.1173 3.31312 15.0048L2.23313 14.6448C1.58063 14.4198 1.17562 13.7898 1.24312 13.1148L1.35562 11.9673C1.40062 11.5848 1.28812 11.2023 1.04062 10.9098L0.320625 10.0098C-0.106875 9.46984 -0.106875 8.72734 0.320625 8.18734L1.04062 7.28734C1.28812 6.99484 1.40062 6.61234 1.35562 6.22984L1.24312 5.08234C1.17562 4.40734 1.58063 3.77734 2.23313 3.55234L3.31312 3.19234C3.67313 3.07984 3.96563 2.80984 4.14563 2.47234L4.66313 1.43734C4.97812 0.829836 5.65313 0.514835 6.32813 0.672335L7.45313 0.942335C7.81313 1.03234 8.21812 0.987335 8.55562 0.784835L9.54562 0.199836C10.1306 -0.137664 10.8731 -0.0476646 11.3456 0.469835L12.1331 1.30234C12.4031 1.57234 12.7631 1.75234 13.1456 1.75234L14.2931 1.79734C14.9681 1.81984 15.5531 2.31484 15.6656 2.98984L15.8681 4.11484C15.9356 4.49734 16.1606 4.83484 16.4756 5.03734L17.4206 5.68984C17.9831 6.18484 18.2081 6.90484 17.9381 7.53484Z" fill="#67FA33"/>
<path d="M13.7762 16.3548C13.6637 16.3548 13.5512 16.3773 13.4612 16.3998L14.2712 16.3548C14.3837 16.3548 14.4737 16.3323 14.5862 16.3098L13.7762 16.3548Z" fill="black"/>
<path d="M5.45117 7.71486L8.26367 10.9324L14.0237 6.29736" fill="#67FA33"/>
<path d="M8.19415 12.6548C7.90324 12.6548 7.61234 12.5375 7.40455 12.3224L4.80717 9.52689C4.43314 9.11635 4.4747 8.51032 4.89028 8.13888C5.32664 7.787 5.97079 7.82609 6.3656 8.21708L8.31882 10.3089L12.8694 6.86818C13.3058 6.53584 13.9707 6.59449 14.324 7.02457C14.6772 7.45466 14.6149 8.06069 14.1577 8.39303L8.8383 12.4397C8.65129 12.5766 8.42272 12.6548 8.19415 12.6548Z" fill="#102D47"/>
</svg>
