<svg width="41" height="41" viewBox="0 0 41 41" fill="none" xmlns="http://www.w3.org/2000/svg">
<path fill-rule="evenodd" clip-rule="evenodd" d="M12.8035 3.84503L12.8125 3.84375H35.875C35.9147 3.84631 35.9544 3.84759 35.9928 3.84887C36.6335 3.93856 37.1255 4.469 37.1562 5.125V28.1875C37.1383 28.5975 37.1229 28.6974 36.9499 28.9037C36.8705 29.0562 36.7526 29.1882 36.5886 29.2868L34.2183 31.6558C33.6059 32.2132 33.201 32.0761 32.8653 31.9505C32.0761 31.6558 31.7993 30.5117 32.4066 29.8442L32.8845 29.3663C32.595 29.2625 32.3618 29.0972 32.2093 28.8384C31.766 28.0876 32.3169 26.9473 33.2766 26.9062C33.7161 26.9011 34.1542 26.8973 34.5937 26.8973V6.40625H14.145C14.1821 7.45303 14.1347 8.39603 13.4633 8.79066C12.8266 9.16734 11.9092 8.82653 11.6209 8.12953L8.21919 11.5312H27.6493C28.3745 10.7958 29.1138 10.0745 29.8441 9.34416C30.0991 9.09559 30.3579 8.96362 30.7858 8.97003C31.7647 9.01103 32.4194 10.3269 31.6814 11.1302C30.9537 11.8785 30.2093 12.6088 29.4687 13.3442V35.875C29.4405 36.5579 28.8793 37.1268 28.1875 37.1562H5.12497C4.55353 37.1319 4.06025 36.7334 3.89881 36.1979C3.86038 36.0813 3.83988 35.957 3.84372 35.825V12.8125C3.845 12.7933 3.84628 12.7741 3.84756 12.7548C3.8591 12.5204 3.93213 12.2897 4.06409 12.095C4.12559 12.004 4.1461 11.9861 4.21913 11.9067L11.9066 4.21916L11.922 4.20506C11.9797 4.13972 12.045 4.08334 12.118 4.03338C12.2974 3.88859 12.3999 3.86553 12.6741 3.85016C12.7151 3.84631 12.7587 3.84503 12.8035 3.84503ZM8.22559 34.5938H26.9062V14.0938H6.40622V32.7808C6.53178 32.6552 6.65735 32.5309 6.78163 32.4067C7.03788 32.1581 7.29413 32.0261 7.72334 32.0312C8.70222 32.0723 9.35822 33.3894 8.61894 34.1927C8.48825 34.3273 8.35756 34.4605 8.22559 34.5938ZM12.8317 26.9062C13.8016 26.9306 14.5191 28.2439 13.7362 29.0754C12.9867 29.8403 12.2846 30.832 11.4057 30.7487C10.4755 30.659 9.87072 29.3637 10.6036 28.5847C11.2916 27.8826 11.9105 26.9537 12.7548 26.9075C12.7804 26.9062 12.8061 26.9062 12.8317 26.9062ZM23.0983 26.9062C24.1874 26.9524 24.8472 28.75 23.6185 29.3419C23.4571 29.4201 23.279 29.4611 23.0983 29.4675C21.6031 29.4893 19.9554 29.7852 19.3968 28.8384C18.9535 28.0876 19.5044 26.9473 20.4641 26.9062C21.3417 26.8947 22.2207 26.8947 23.0983 26.9062ZM12.8483 16.6562C13.5056 16.6844 14.0655 17.2354 14.0937 17.9016C14.1129 19.2931 14.4179 20.8587 13.612 21.5019C12.8893 22.0785 11.5773 21.6019 11.5325 20.5359C11.5094 18.8907 11.1379 16.6332 12.8483 16.6562Z" fill="white"/>
</svg>
