<svg width="22" height="12" viewBox="0 0 22 12" fill="none" xmlns="http://www.w3.org/2000/svg">
<path d="M21.8546 5.64748L16.8547 0.647557C16.6751 0.43783 16.3595 0.413381 16.1497 0.59303C15.94 0.772637 15.9156 1.08828 16.0952 1.29801C16.112 1.31756 16.1302 1.33582 16.1497 1.35253L20.2946 5.50247H0.499976C0.223863 5.50247 0 5.72633 0 6.00249C0 6.27864 0.223863 6.50246 0.499976 6.50246H20.2946L16.1497 10.6474C15.94 10.827 15.9156 11.1426 16.0952 11.3523C16.2749 11.5621 16.5905 11.5865 16.8002 11.4069C16.8197 11.3901 16.838 11.3719 16.8547 11.3523L21.8546 6.35242C22.0485 6.15747 22.0485 5.84252 21.8546 5.64748Z" fill="#2F73F2"/>
</svg>
