<svg width="42" height="39" viewBox="0 0 42 39" fill="none" xmlns="http://www.w3.org/2000/svg">
<path d="M23.625 8.69376H18.375C18.201 8.69376 18.034 8.62955 17.911 8.51527C17.7879 8.40099 17.7188 8.246 17.7188 8.08438V5.64688C17.7188 5.48526 17.7879 5.33027 17.911 5.21599C18.034 5.10171 18.201 5.03751 18.375 5.03751H23.625C23.799 5.03751 23.966 5.10171 24.089 5.21599C24.2121 5.33027 24.2812 5.48526 24.2812 5.64688V8.08438C24.2812 8.246 24.2121 8.40099 24.089 8.51527C23.966 8.62955 23.799 8.69376 23.625 8.69376ZM19.0312 7.47501H22.9688V6.25626H19.0312V7.47501Z" fill="white"/>
<path d="M23.625 14.7875C23.6244 15.2722 23.4168 15.7369 23.0477 16.0796C22.6786 16.4223 22.1782 16.6151 21.6562 16.6156H20.3438C19.8218 16.6151 19.3214 16.4223 18.9523 16.0796C18.5832 15.7369 18.3756 15.2722 18.375 14.7875H15.75C14.8105 14.7878 13.8938 14.5189 13.125 14.0174V20.2719C13.125 20.4335 13.1941 20.5885 13.3172 20.7028C13.4403 20.8171 13.6072 20.8813 13.7812 20.8813H28.2188C28.3928 20.8813 28.5597 20.8171 28.6828 20.7028C28.8059 20.5885 28.875 20.4335 28.875 20.2719V14.0174C28.1062 14.5188 27.1895 14.7878 26.25 14.7875H23.625Z" fill="white"/>
<path d="M28.875 7.47501H13.125C12.951 7.47501 12.784 7.53921 12.661 7.65349C12.5379 7.76777 12.4688 7.92276 12.4688 8.08438V10.5219C12.4698 11.3297 12.8158 12.1041 13.4309 12.6753C14.0461 13.2465 14.8801 13.5678 15.75 13.5688H18.375C18.3756 13.0841 18.5832 12.6194 18.9523 12.2767C19.3214 11.9339 19.8218 11.7412 20.3438 11.7406H21.6562C22.1782 11.7412 22.6786 11.9339 23.0477 12.2767C23.4168 12.6194 23.6244 13.0841 23.625 13.5688H26.25C27.1199 13.5678 27.9539 13.2465 28.5691 12.6753C29.1842 12.1041 29.5302 11.3297 29.5312 10.5219V8.08438C29.5312 7.92276 29.4621 7.76777 29.339 7.65349C29.216 7.53921 29.049 7.47501 28.875 7.47501Z" fill="white"/>
<path d="M21.6562 12.9594H20.3438C19.9813 12.9594 19.6875 13.2322 19.6875 13.5688V14.7875C19.6875 15.1241 19.9813 15.3969 20.3438 15.3969H21.6562C22.0187 15.3969 22.3125 15.1241 22.3125 14.7875V13.5688C22.3125 13.2322 22.0187 12.9594 21.6562 12.9594Z" fill="white"/>
<path d="M8.53125 23.1562H3.28125C2.91881 23.1562 2.625 23.4291 2.625 23.7656V35.9531C2.625 36.2897 2.91881 36.5625 3.28125 36.5625H8.53125C8.89369 36.5625 9.1875 36.2897 9.1875 35.9531V23.7656C9.1875 23.4291 8.89369 23.1562 8.53125 23.1562Z" fill="#2F73F2"/>
<path d="M38.6643 19.8065C37.9713 19.1606 37.0455 18.7756 36.0652 18.7257C35.0848 18.6757 34.1192 18.9644 33.3544 19.536L26.7558 24.4376C27.4191 24.9512 27.9527 25.5939 28.3189 26.3202C28.6851 27.0465 28.8749 27.8387 28.875 28.6406C28.874 29.4484 28.5279 30.2229 27.9128 30.794C27.2977 31.3652 26.4637 31.6866 25.5938 31.6875H17.7188C17.5447 31.6875 17.3778 31.6233 17.2547 31.509C17.1316 31.3947 17.0625 31.2397 17.0625 31.0781C17.0625 30.9165 17.1316 30.7615 17.2547 30.6472C17.3778 30.533 17.5447 30.4688 17.7188 30.4688H25.5938C26.1157 30.4682 26.6161 30.2754 26.9852 29.9327C27.3543 29.59 27.5619 29.1253 27.5625 28.6406C27.5619 27.9644 27.3878 27.2979 27.0548 26.6965C26.7217 26.0951 26.2392 25.576 25.6472 25.1821C25.4838 25.071 25.3125 24.9703 25.1344 24.8808C25.0832 24.8553 25.0294 24.8341 24.9769 24.8103C24.8328 24.7448 24.6851 24.6865 24.5342 24.6358C24.4788 24.6171 24.4246 24.596 24.3683 24.5792C24.1763 24.5229 23.9804 24.4784 23.7821 24.4462C23.729 24.4373 23.6752 24.4305 23.6215 24.4233C23.4054 24.393 23.1873 24.3769 22.9688 24.375H19.215C17.5454 23.5449 15.6748 23.1253 13.7812 23.1563C12.6726 23.1532 11.5687 23.2905 10.5 23.5645V35.3438H24.5044C25.3522 35.344 26.1901 35.1744 26.961 34.8467C27.732 34.5191 28.4177 34.0409 28.9716 33.4448L38.7896 22.8897C39.1892 22.4549 39.3981 21.8965 39.3749 21.3254C39.3517 20.7542 39.0981 20.212 38.6643 19.8065Z" fill="#2F73F2"/>
</svg>
