<svg width="42" height="41" viewBox="0 0 42 41" fill="none" xmlns="http://www.w3.org/2000/svg">
<path fill-rule="evenodd" clip-rule="evenodd" d="M31.5 37.1562H10.5C9.7965 37.1242 9.22031 36.5669 9.1875 35.875V5.125C9.22031 4.43697 9.77944 3.87578 10.5 3.84375H23.625C23.6276 3.84375 23.6302 3.84375 23.6342 3.84375C23.6421 3.84375 23.6499 3.84375 23.6591 3.84375C23.9991 3.85913 24.2668 3.94881 24.5529 4.21916L28.4878 8.06034C29.2845 8.86497 28.4458 10.6267 27.1267 10.1757C26.9417 10.1129 26.775 10.0066 26.6319 9.87203L24.9375 8.21794V11.5312H31.5C31.5 11.5312 31.6155 11.5351 31.7481 11.5543C32.6839 11.776 33.1498 13.047 32.4056 13.7401C32.1746 13.9554 32.0132 14.0694 31.5 14.0938H23.625C22.9202 14.0617 22.3453 13.5159 22.3125 12.8125V6.40625H11.8125V34.5938H30.1875V17.9375C30.2361 16.9445 31.5473 16.2821 32.3597 16.9689C32.6353 17.2021 32.7863 17.3917 32.8125 17.9375V35.875C32.7797 36.5618 32.2088 37.1242 31.5 37.1562V37.1562ZM23.625 29.4688H15.75C14.6239 29.4418 13.9322 27.6724 15.1397 27.0536C15.2709 26.9857 15.414 26.9408 15.561 26.9191C15.6227 26.9114 15.687 26.9075 15.75 26.9062H23.625C23.646 26.9062 23.667 26.9075 23.688 26.9075C24.9651 26.9985 25.5465 29.4239 23.625 29.4688V29.4688ZM26.25 24.3438H15.75C15.4481 24.3361 15.3497 24.2963 15.1804 24.2169C14.1645 23.739 14.3876 21.8184 15.75 21.7812H26.25C26.2749 21.7825 26.2986 21.7825 26.3235 21.7838C26.9916 21.8376 27.5625 22.4039 27.5625 23.0625C27.5625 23.7428 27.0467 24.322 26.25 24.3438ZM26.25 19.2188H15.75C14.6186 19.188 13.8679 17.4007 15.1804 16.7831C15.3497 16.7037 15.4481 16.6639 15.75 16.6562H26.25C26.2749 16.6575 26.2986 16.6575 26.3235 16.6588C26.6241 16.6832 26.7199 16.7267 26.8852 16.8164C27.8696 17.3481 27.5415 19.1829 26.25 19.2188ZM18.4117 11.5312C19.6836 11.5838 20.2742 14.0169 18.4117 14.0938C17.4746 14.1066 16.5257 14.1873 15.603 14.0861C14.3902 13.9528 13.9059 11.6056 15.7133 11.5312C16.6123 11.5197 17.5127 11.5197 18.4117 11.5312Z" fill="white"/>
</svg>
