<svg width="50" height="50" viewBox="0 0 50 50" fill="none" xmlns="http://www.w3.org/2000/svg">
<g clip-path="url(#clip0_2_497)">
<path d="M49.7069 18.164L47.0846 14.6677L45.6266 24.874C45.4931 25.8089 45.0516 26.6917 44.3836 27.3597L26.4297 45.3136C24.8637 46.8798 22.7792 47.7424 20.5602 47.7424C19.897 47.7424 19.2463 47.6637 18.6174 47.5139C19.5725 49.0071 21.2441 49.9999 23.1444 49.9999H44.6288C47.5904 49.9999 49.9999 47.5905 49.9999 44.6289V19.0429C49.9999 18.726 49.897 18.4176 49.7069 18.164Z" fill="white"/>
<path d="M30.2278 24.3362C31.0368 24.3362 31.6926 23.6803 31.6926 22.8713C31.6926 22.0623 31.0368 21.4065 30.2278 21.4065C29.4188 21.4065 28.7629 22.0623 28.7629 22.8713C28.7629 23.6803 29.4188 24.3362 30.2278 24.3362Z" fill="#2F73F2"/>
<path d="M13.655 24.3362C14.464 24.3362 15.1199 23.6803 15.1199 22.8713C15.1199 22.0623 14.464 21.4065 13.655 21.4065C12.846 21.4065 12.1902 22.0623 12.1902 22.8713C12.1902 23.6803 12.846 24.3362 13.655 24.3362Z" fill="#2F73F2"/>
<path d="M24.3583 43.2421L42.3122 25.2882C42.5363 25.0641 42.6817 24.7733 42.7265 24.4596L44.7982 9.95831C44.8634 9.50186 44.7099 9.04132 44.3839 8.71534L41.2765 5.60792L37.1333 9.75118L38.1691 10.787C38.7412 11.359 38.7412 12.2865 38.1691 12.8586C37.8831 13.1446 37.5082 13.2877 37.1334 13.2877C36.7586 13.2877 36.3836 13.1446 36.0976 12.8586L31.9544 8.71534C31.3823 8.14337 31.3823 7.21583 31.9544 6.64376C32.5264 6.07178 33.4539 6.07178 34.026 6.64376L35.0618 7.6796L39.205 3.53633L36.0975 0.428911C35.7716 0.102837 35.311 -0.0500927 34.8546 0.0145557L20.3532 2.08624C20.0394 2.13106 19.7487 2.27647 19.5246 2.50059L1.57068 20.4545C-0.52356 22.5486 -0.52356 25.9563 1.57068 28.0504L16.7624 43.2421C17.8095 44.2893 19.1849 44.8127 20.5603 44.8127C21.9357 44.8127 23.3112 44.2893 24.3583 43.2421ZM30.2278 18.4769C32.651 18.4769 34.6223 20.4482 34.6223 22.8714C34.6223 25.2945 32.651 27.2659 30.2278 27.2659C27.8047 27.2659 25.8333 25.2945 25.8333 22.8714C25.8333 20.4482 27.8047 18.4769 30.2278 18.4769ZM13.655 27.2659C11.2318 27.2659 9.26043 25.2945 9.26043 22.8714C9.26043 20.4482 11.2318 18.4769 13.655 18.4769C16.0781 18.4769 18.0495 20.4482 18.0495 22.8714C18.0495 25.2945 16.0782 27.2659 13.655 27.2659ZM18.4889 34.6946C18.3354 34.6946 18.1792 34.6703 18.0256 34.6192C17.2581 34.3633 16.8433 33.5338 17.0991 32.7662L24.0044 12.0501C24.2602 11.2826 25.0898 10.8679 25.8573 11.1236C26.6248 11.3795 27.0395 12.209 26.7838 12.9766L19.8785 33.6927C19.6738 34.3064 19.1022 34.6946 18.4889 34.6946Z" fill="#2F73F2"/>
<path d="M44.3837 2.50056C44.9558 1.92859 44.9558 1.00105 44.3837 0.428979C43.8118 -0.142993 42.8842 -0.142993 42.3122 0.428979L39.2048 3.5364L41.2764 5.60798L44.3837 2.50056Z" fill="#2F73F2"/>
</g>
<defs>
<clipPath id="clip0_2_497">
<rect width="50" height="50" fill="white"/>
</clipPath>
</defs>
</svg>
