<svg width="30" height="30" viewBox="0 0 30 30" fill="none" xmlns="http://www.w3.org/2000/svg">
<path d="M11.7051 9.7599C13.4875 9.7599 14.9375 8.30982 14.9375 6.52746C14.775 2.24513 8.63449 2.24631 8.47266 6.52752C8.47266 8.30982 9.92273 9.7599 11.7051 9.7599ZM11.7051 5.05283C12.5182 5.05283 13.1797 5.71435 13.1797 6.52746C13.1056 8.48109 10.3043 8.48051 10.2305 6.52746C10.2305 5.71435 10.892 5.05283 11.7051 5.05283Z" fill="white"/>
<path d="M29.5605 17.7611L23.4414 14.228C23.4311 14.2221 23.4206 14.2168 23.4101 14.2113V2.7617C23.4101 1.23656 22.1763 0 20.6484 0H2.76176C1.23633 0 1.68997e-07 1.23404 1.68997e-07 2.7617V20.6484C-0.000527175 22.1733 1.23316 23.4102 2.76076 23.4101H16.0039V25.5879C16.0039 25.902 16.1715 26.1921 16.4434 26.3491L22.5625 29.8822C22.8345 30.0392 23.1695 30.0392 23.4415 29.8822L29.5605 26.3491C29.8325 26.1921 30 25.902 30 25.588V18.5222C30 18.2082 29.8325 17.9181 29.5605 17.7611ZM1.75781 2.7617C1.75781 2.20723 2.20652 1.75781 2.76176 1.75781H20.6484C21.2029 1.75781 21.6523 2.20652 21.6523 2.7617V12.0971L18.5555 7.45195C18.2234 6.93439 17.425 6.93445 17.0929 7.45195L10.7637 16.9458L7.25865 11.6882C6.92654 11.1707 6.12814 11.1707 5.79609 11.6882L1.75781 17.7456V2.7617ZM2.76076 21.6523C2.10598 21.6523 1.83855 21.1156 1.78342 20.876L6.52734 13.7602L11.7888 21.6523H2.76076ZM13.9014 21.6523L11.82 18.5303L17.8242 9.52395L21.4056 14.896L16.4433 17.7611C16.1714 17.9181 16.0039 18.2082 16.0039 18.5222V21.6523H13.9014ZM28.2422 25.0806L23.002 28.1062L17.7618 25.0806V19.0297L23.002 16.0041L28.2422 19.0297V25.0806Z" fill="white"/>
<path d="M22.2702 18.2724L20.0734 21.5673C19.8766 21.8626 19.8766 22.2472 20.0734 22.5424L22.2702 25.8379C22.6024 26.3554 23.4006 26.3553 23.7327 25.8379L25.9295 22.5424C26.1264 22.2472 26.1264 21.8626 25.9295 21.5673L23.7327 18.2724C23.4006 17.7548 22.6024 17.755 22.2702 18.2724ZM24.142 22.0549L23.0015 23.7657L21.861 22.0549L23.0015 20.3444L24.142 22.0549Z" fill="white"/>
</svg>
