<svg width="30" height="30" viewBox="0 0 30 30" fill="none" xmlns="http://www.w3.org/2000/svg">
<g clip-path="url(#clip0_1_340)">
<path d="M11.9271 20.2155L16.0703 7.78587C16.2237 7.32538 15.9749 6.82762 15.5144 6.67411C15.054 6.52065 14.5561 6.7695 14.4026 7.22999L10.2595 19.6597C10.106 20.1201 10.3549 20.6179 10.8153 20.7714C10.9075 20.8021 11.0013 20.8167 11.0934 20.8167C11.4613 20.8168 11.8043 20.5839 11.9271 20.2155Z" fill="white"/>
<path d="M18.1367 16.3596C19.5906 16.3596 20.7734 15.1767 20.7734 13.7228C20.7734 12.269 19.5906 11.0861 18.1367 11.0861C16.6828 11.0861 15.5 12.269 15.5 13.7228C15.5 15.1767 16.6828 16.3596 18.1367 16.3596ZM18.1367 12.8439C18.6213 12.8439 19.0156 13.2382 19.0156 13.7228C19.0156 14.2075 18.6213 14.6017 18.1367 14.6017C17.6521 14.6017 17.2578 14.2075 17.2578 13.7228C17.2578 13.2382 17.6521 12.8439 18.1367 12.8439Z" fill="white"/>
<path d="M8.19299 11.0861C6.73911 11.0861 5.55627 12.269 5.55627 13.7228C5.55627 15.1767 6.73911 16.3596 8.19299 16.3596C9.64688 16.3596 10.8297 15.1767 10.8297 13.7228C10.8297 12.269 9.64694 11.0861 8.19299 11.0861ZM8.19299 14.6017C7.70836 14.6017 7.31409 14.2075 7.31409 13.7228C7.31409 13.2382 7.70836 12.8439 8.19299 12.8439C8.67762 12.8439 9.0719 13.2382 9.0719 13.7228C9.0719 14.2075 8.67768 14.6017 8.19299 14.6017Z" fill="white"/>
<path d="M29.8244 10.8987L26.7596 6.81216L26.8792 5.97527C26.9183 5.7014 26.8262 5.42507 26.6306 5.22949L24.7661 3.36503L26.6305 1.50058C26.9737 1.1574 26.9737 0.600874 26.6305 0.257632C26.2873 -0.0855518 25.7308 -0.0855518 25.3876 0.257632L23.5232 2.12209L21.6587 0.257632C21.4631 0.0619873 21.1868 -0.0297705 20.9129 0.00901854L12.2122 1.25197C12.0239 1.27886 11.8495 1.36611 11.715 1.50058L0.942651 12.2729C-0.313892 13.5294 -0.313892 15.574 0.942651 16.8305L10.0577 25.9455C10.2441 26.132 10.4483 26.2901 10.6643 26.4212V26.7776C10.6643 28.5545 12.11 30.0002 13.8869 30.0002H26.7776C28.5545 30.0002 30.0002 28.5545 30.0002 26.7776V11.426C30.0002 11.2359 29.9385 11.0508 29.8244 10.8987ZM2.1856 15.5875C1.61443 15.0163 1.61443 14.087 2.1856 13.5159L12.7508 2.95072L20.7264 1.81136L22.2802 3.36509L21.0372 4.60804L20.4157 3.98654C20.0725 3.64335 19.516 3.64335 19.1728 3.98654C18.8295 4.32972 18.8295 4.88625 19.1728 5.22949L21.6587 7.71545C21.8303 7.88707 22.0553 7.97291 22.2802 7.97291C22.505 7.97291 22.73 7.88707 22.9016 7.71545C23.2448 7.37226 23.2448 6.81574 22.9016 6.4725L22.2801 5.85099L23.523 4.60804L25.0768 6.16177L23.9374 14.1374L13.3723 24.7026C13.0956 24.9793 12.7277 25.1316 12.3364 25.1316C11.9452 25.1316 11.5773 24.9792 11.3006 24.7026L2.1856 15.5875ZM28.2424 26.7776C28.2424 27.5853 27.5853 28.2424 26.7776 28.2424H13.8869C13.1156 28.2424 12.4821 27.6431 12.4265 26.8857C13.2214 26.8637 14.0098 26.5509 14.6152 25.9455L25.3875 15.1732C25.522 15.0387 25.6092 14.8643 25.6361 14.676L26.408 9.2731L28.2424 11.719V26.7776Z" fill="white"/>
</g>
<defs>
<clipPath id="clip0_1_340">
<rect width="30" height="30" fill="white"/>
</clipPath>
</defs>
</svg>
