<svg width="28" height="28" viewBox="0 0 28 28" fill="none" xmlns="http://www.w3.org/2000/svg">
<path fill-rule="evenodd" clip-rule="evenodd" d="M19.5912 5.5411V3.66708C19.5912 2.11484 18.3306 0.854248 16.7783 0.854248H3.65658C2.10434 0.854248 0.84375 2.11484 0.84375 3.66708V16.7888C0.84375 18.3411 2.10434 19.6017 3.65658 19.6017H5.53059C6.04761 19.6017 6.46822 19.1811 6.46822 18.664C6.46822 18.147 6.04761 17.7264 5.53059 17.7264H3.65658C3.13837 17.7264 2.71897 17.307 2.71897 16.7888V3.66708C2.71897 3.14887 3.13837 2.72947 3.65658 2.72947H16.7783C17.2965 2.72947 17.7159 3.14887 17.7159 3.66708V5.5411C17.7159 6.05811 18.1365 6.47871 18.6535 6.47871C19.1706 6.47871 19.5912 6.05811 19.5912 5.5411Z" fill="white"/>
<path fill-rule="evenodd" clip-rule="evenodd" d="M27.0912 11.1671C27.0912 9.61484 25.8306 8.35425 24.2783 8.35425H11.1566C9.60434 8.35425 8.34375 9.61484 8.34375 11.1671V24.2888C8.34375 25.8411 9.60434 27.1017 11.1566 27.1017H24.2783C25.8306 27.1017 27.0912 25.8411 27.0912 24.2888V11.1671ZM25.2159 11.1671V24.2888C25.2159 24.807 24.7965 25.2264 24.2783 25.2264H11.1566C10.6384 25.2264 10.219 24.807 10.219 24.2888V11.1671C10.219 10.6489 10.6384 10.2295 11.1566 10.2295H24.2783C24.7965 10.2295 25.2159 10.6489 25.2159 11.1671Z" fill="white"/>
<path fill-rule="evenodd" clip-rule="evenodd" d="M16.8125 13.0526V22.4267C16.8125 22.944 17.2325 23.3641 17.75 23.3641C18.2675 23.3641 18.6875 22.944 18.6875 22.4267V13.0526C18.6875 12.5354 18.2675 12.1152 17.75 12.1152C17.2325 12.1152 16.8125 12.5354 16.8125 13.0526Z" fill="white"/>
<path fill-rule="evenodd" clip-rule="evenodd" d="M13.0526 18.6875H22.4267C22.944 18.6875 23.3641 18.2675 23.3641 17.75C23.3641 17.2325 22.944 16.8125 22.4267 16.8125H13.0526C12.5354 16.8125 12.1152 17.2325 12.1152 17.75C12.1152 18.2675 12.5354 18.6875 13.0526 18.6875Z" fill="white"/>
</svg>
