<svg width="30" height="30" viewBox="0 0 30 30" fill="none" xmlns="http://www.w3.org/2000/svg">
<path d="M26.25 6.56251H23.5312L18.1781 1.20939C18.0025 1.03478 17.7649 0.936768 17.5172 0.936768C17.2695 0.936768 17.0319 1.03478 16.8562 1.20939L14.9812 3.08439L13.1062 1.20939C12.9306 1.03478 12.693 0.936768 12.4453 0.936768C12.1976 0.936768 11.96 1.03478 11.7844 1.20939L6.46875 6.56251H3.75C3.00408 6.56251 2.28871 6.85883 1.76126 7.38627C1.23382 7.91372 0.9375 8.62909 0.9375 9.37501V26.25C0.9375 26.9959 1.23382 27.7113 1.76126 28.2387C2.28871 28.7662 3.00408 29.0625 3.75 29.0625H26.25C26.9959 29.0625 27.7113 28.7662 28.2387 28.2387C28.7662 27.7113 29.0625 26.9959 29.0625 26.25V9.37501C29.0625 8.62909 28.7662 7.91372 28.2387 7.38627C27.7113 6.85883 26.9959 6.56251 26.25 6.56251ZM17.5219 3.19689L20.8781 6.56251H18.4969L16.3219 4.39689L17.5219 3.19689ZM12.4781 3.19689L15.8438 6.56251H9.12187L12.4781 3.19689ZM26.25 27.1875H3.75C3.50136 27.1875 3.2629 27.0887 3.08709 26.9129C2.91127 26.7371 2.8125 26.4986 2.8125 26.25V9.37501C2.8125 9.12637 2.91127 8.88791 3.08709 8.7121C3.2629 8.53628 3.50136 8.43751 3.75 8.43751H26.25C26.4986 8.43751 26.7371 8.53628 26.9129 8.7121C27.0887 8.88791 27.1875 9.12637 27.1875 9.37501V14.0625H25.3125C24.3179 14.0625 23.3641 14.4576 22.6609 15.1609C21.9576 15.8641 21.5625 16.8179 21.5625 17.8125C21.5625 18.8071 21.9576 19.7609 22.6609 20.4642C23.3641 21.1674 24.3179 21.5625 25.3125 21.5625H27.1875V26.25C27.1875 26.4986 27.0887 26.7371 26.9129 26.9129C26.7371 27.0887 26.4986 27.1875 26.25 27.1875ZM27.1875 15.9375V19.6875H25.3125C24.8152 19.6875 24.3383 19.49 23.9867 19.1383C23.635 18.7867 23.4375 18.3098 23.4375 17.8125C23.4375 17.3152 23.635 16.8383 23.9867 16.4867C24.3383 16.1351 24.8152 15.9375 25.3125 15.9375H27.1875Z" fill="white"/>
</svg>
